<svg width="16" height="16" viewBox="0 0 16 16" fill="none" xmlns="http://www.w3.org/2000/svg">
    <rect width="16" height="16" rx="8" fill="#611010"/>
    <path d="M4.248 6.9744C4.2528 6.976 4.5872 7.0896 4.7424 7.4176C4.8624 7.6752 4.8464 8.0032 4.6912 8.392C4.4864 8.9088 4.2688 9.4848 4.048 10.1056C3.9584 10.36 3.9952 10.632 4.1504 10.8528C4.3072 11.0736 4.5504 11.2 4.8208 11.2H5.9376C6.28 11.2 6.5808 10.9568 6.6512 10.6224L7.0208 8.8928L8.0304 8.8784C8.25591 8.87634 8.47387 8.79685 8.64777 8.65325C8.82166 8.50965 8.94093 8.31066 8.9856 8.0896L9.1376 7.3584H11.3712C11.4592 7.3584 11.5312 7.2864 11.5312 7.1984V7.1216H11.84C11.9296 7.1216 12 7.0496 12 6.9616V6.8432H4.1392C4.1472 6.9024 4.1888 6.9552 4.248 6.9744ZM7.5424 7.3648C7.5328 7.5872 7.5728 7.9376 7.8704 8.1072C7.896 8.1216 7.9216 8.128 7.9488 8.128C8.0048 8.128 8.0592 8.0992 8.088 8.0464C8.10873 8.00947 8.11397 7.96583 8.10257 7.92504C8.09117 7.88425 8.06407 7.84964 8.0272 7.8288C7.8688 7.7392 7.8544 7.5072 7.8624 7.36H8.8096L8.672 8.0256C8.64191 8.17531 8.56125 8.31012 8.44356 8.40742C8.32587 8.50472 8.1783 8.55859 8.0256 8.56L7.088 8.5744L7.3008 7.5824C7.328 7.4624 7.4272 7.3776 7.5424 7.3648ZM11.84 5.0784H11.1056V4.96C11.1056 4.872 11.0336 4.8 10.9456 4.8C10.8576 4.8 10.7856 4.872 10.7856 4.96V5.0784H5.064C4.9424 5.0784 4.8272 5.112 4.728 5.1712C4.6352 5.0752 4.4864 4.9936 4.2656 5.0096C4.24463 5.01102 4.22416 5.01659 4.20537 5.02599C4.18657 5.03539 4.16984 5.04844 4.15614 5.06437C4.14244 5.08031 4.13205 5.09881 4.12557 5.1188C4.11909 5.13878 4.11665 5.15986 4.1184 5.1808C4.1248 5.2688 4.2032 5.3344 4.2896 5.328C4.4032 5.3184 4.4672 5.3568 4.5024 5.3936C4.4672 5.4512 4.44 5.5152 4.424 5.584L4.3072 6.0848V6.088L4.2048 6.5216H12V5.2368C12 5.1488 11.9296 5.0784 11.84 5.0784Z" fill="white"/>
</svg>
