<svg width="395" height="513" viewBox="0 0 395 513" fill="none" xmlns="http://www.w3.org/2000/svg">
<rect x="2.5" y="2.5" width="390" height="508" rx="7.5" fill="#B11F1F"/>
<rect x="2.5" y="2.5" width="390" height="508" rx="7.5" stroke="white" stroke-width="5"/>
<path d="M211.005 284.088V236.472H187.965L187.677 246.264C187.485 250.424 187.197 254.36 186.813 258.072C186.493 261.784 185.981 265.176 185.277 268.248C184.573 271.256 183.645 273.816 182.493 275.928C181.405 278.04 180.029 279.544 178.365 280.44L161.757 278.328C164.061 278.392 165.949 277.592 167.421 275.928C168.957 274.264 170.173 271.928 171.069 268.92C171.965 265.848 172.605 262.264 172.989 258.168C173.437 254.072 173.757 249.624 173.949 244.824L174.717 223.8H226.365V284.088H211.005ZM159.549 304.92L159.645 278.328H235.773V304.92H221.373V291H173.949V304.92H159.549Z" fill="white"/>
<ellipse cx="228.128" cy="386.2" rx="11.2" ry="11.2" fill="white"/>
<ellipse opacity="0.2" cx="228.128" cy="386.2" rx="6.72001" ry="6.72001" fill="#2C2C2C"/>
<path d="M228.128 396.504V439.288V448.248C228.128 463.48 228.128 463.48 209.312 463.48C209.312 463.48 217.6 463.48 197.888 463.48C178.176 463.48 178.176 463.48 178.176 443.768V432.12" stroke="white" stroke-width="4.48001"/>
<path d="M184.224 382.616H200.8V415.32C200.8 424.227 193.579 431.448 184.672 431.448H172.128C163.221 431.448 156 424.227 156 415.32V382.616H172.576" stroke="white" stroke-width="4.48001" stroke-linecap="round" stroke-linejoin="round"/>
</svg>
