<svg width="395" height="513" viewBox="0 0 395 513" fill="none" xmlns="http://www.w3.org/2000/svg">
<rect x="2.5" y="2.5" width="390" height="508" rx="7.5" fill="#B11F1F"/>
<rect x="2.5" y="2.5" width="390" height="508" rx="7.5" stroke="white" stroke-width="5"/>
<path d="M211.005 284.088V236.472H187.965L187.677 246.264C187.485 250.424 187.197 254.36 186.813 258.072C186.493 261.784 185.981 265.176 185.277 268.248C184.573 271.256 183.645 273.816 182.493 275.928C181.405 278.04 180.029 279.544 178.365 280.44L161.757 278.328C164.061 278.392 165.949 277.592 167.421 275.928C168.957 274.264 170.173 271.928 171.069 268.92C171.965 265.848 172.605 262.264 172.989 258.168C173.437 254.072 173.757 249.624 173.949 244.824L174.717 223.8H226.365V284.088H211.005ZM159.549 304.92L159.645 278.328H235.773V304.92H221.373V291H173.949V304.92H159.549Z" fill="white"/>
<path d="M223.4 403.4V441.6V449.6C223.4 463.2 223.4 463.2 206.6 463.2C206.6 463.2 210 463.2 192.4 463.2C174.8 463.2 174.8 463.2 174.8 445.6V435.2" stroke="white" stroke-width="8"/>
<path d="M184.2 391H195V420.2C195 428.153 188.553 434.6 180.6 434.6H169.4C161.447 434.6 155 428.153 155 420.2V391H165.8" stroke="white" stroke-width="8" stroke-linecap="round" stroke-linejoin="round"/>
<circle cx="223.4" cy="403" r="16" fill="white"/>
<circle opacity="0.2" cx="223.4" cy="403" r="8" fill="#2C2C2C"/>
</svg>
