<svg width="395" height="513" viewBox="0 0 395 513" fill="none" xmlns="http://www.w3.org/2000/svg">
<rect x="2.5" y="2.5" width="390" height="508" rx="7.5" fill="#B11F1F"/>
<rect x="2.5" y="2.5" width="390" height="508" rx="7.5" stroke="white" stroke-width="5"/>
<path d="M167.399 291V223.8H228.647V291H213.191V232.92L216.743 236.472H179.303L182.855 232.92V291H167.399Z" fill="white"/>
<path d="M182.113 355.57C182.48 355.57 182.48 355 182.113 355C181.746 355 181.746 355.57 182.113 355.57ZM211.046 450.18C202.877 463.103 182.608 457.419 182.529 441.928V440.656C182.408 440.66 182.288 440.666 182.167 440.666H177.194C177.072 440.666 176.952 440.66 176.831 440.656V441.928C177.189 464.89 207.967 471.079 217.336 450.475H213.805C212.859 450.475 211.936 450.372 211.046 450.18ZM196.661 423.795C196.239 423.795 195.818 423.777 195.398 423.744C195.362 423.766 195.327 423.788 195.291 423.809V427.122C198.25 428.314 201.7 428.172 204.648 426.471C208.18 424.433 210.08 420.719 209.993 416.953C206.937 421.208 201.964 423.795 196.661 423.795ZM246.608 407.397C246.608 404.642 245.545 402.022 243.689 400.055C244.312 397.423 243.923 394.623 242.546 392.239C241.181 389.875 238.963 388.122 236.348 387.34C235.572 384.749 233.835 382.518 231.45 381.141C229.085 379.777 226.288 379.368 223.632 379.999C220.207 376.638 214.376 376.123 210.415 378.844C210.573 379.086 210.725 379.332 210.87 379.582C212.473 382.358 213.215 385.496 213.044 388.647C214.923 391.52 215.863 394.979 215.669 398.456C216.708 398.515 217.758 398.426 218.759 398.188C219.363 398.757 220.031 399.254 220.75 399.667C221.469 400.085 222.235 400.417 223.032 400.656C223.271 401.451 223.602 402.216 224.019 402.935C224.433 403.655 224.93 404.324 225.5 404.929C225.119 406.526 225.119 408.267 225.5 409.864C224.93 410.469 224.433 411.139 224.018 411.859C221.037 417.023 222.865 423.546 227.934 426.471C233.084 429.444 239.611 427.64 242.546 422.555C243.923 420.17 244.312 417.37 243.689 414.738C245.563 412.753 246.607 410.127 246.608 407.397ZM171.953 402.049C171.538 401.329 171.041 400.66 170.472 400.055C170.852 398.458 170.852 396.717 170.472 395.12C171.042 394.515 171.539 393.845 171.953 393.125C172.369 392.406 172.7 391.642 172.94 390.847C173.735 390.608 174.5 390.277 175.219 389.86C175.939 389.446 176.608 388.949 177.212 388.38C178.816 388.759 180.545 388.759 182.148 388.38C182.752 388.948 183.421 389.445 184.139 389.859C184.859 390.276 185.625 390.608 186.421 390.847C186.66 391.642 186.992 392.407 187.408 393.126C187.823 393.846 188.32 394.515 188.889 395.12C188.509 396.717 188.509 398.458 188.889 400.055C188.319 400.66 187.822 401.33 187.408 402.05C184.426 407.214 186.255 413.737 191.324 416.662C196.474 419.635 203.001 417.831 205.935 412.746C207.312 410.361 207.701 407.561 207.078 404.93C210.933 401.03 210.933 394.145 207.078 390.246C207.701 387.615 207.312 384.814 205.935 382.43C204.57 380.066 202.352 378.313 199.737 377.531C198.961 374.94 197.224 372.709 194.839 371.332C192.474 369.968 189.677 369.56 187.021 370.19C183.123 366.337 176.237 366.336 172.34 370.19C169.683 369.56 166.886 369.968 164.521 371.332C162.137 372.709 160.4 374.941 159.624 377.531C157.009 378.313 154.791 380.066 153.426 382.43C152.062 384.794 151.653 387.59 152.282 390.246C148.428 394.145 148.428 401.03 152.282 404.93C151.659 407.561 152.048 410.361 153.425 412.745C156.404 417.907 162.966 419.589 168.037 416.662C173.202 413.681 174.88 407.118 171.953 402.049ZM219.593 426.232C217.408 426.618 215.172 426.618 212.986 426.231C211.584 428.36 209.704 430.132 207.496 431.406C207.131 431.616 206.759 431.811 206.379 431.992V437.35C206.379 441.445 209.71 444.777 213.805 444.777H218.778C222.873 444.777 226.204 441.445 226.204 437.35V431.992C225.824 431.811 225.451 431.615 225.086 431.405C222.842 430.11 220.979 428.339 219.593 426.232Z" fill="white"/>
<path d="M182.167 434.968C186.262 434.968 189.593 431.636 189.593 427.541V422.183C189.213 422.002 188.84 421.806 188.475 421.596C186.231 420.301 184.368 418.529 182.982 416.423C180.796 416.808 178.56 416.808 176.375 416.422C174.973 418.551 173.093 420.323 170.885 421.597C170.52 421.806 170.147 422.002 169.768 422.183V427.541C169.768 431.636 173.099 434.968 177.194 434.968L182.167 434.968Z" fill="white"/>
</svg>
