<svg width="395" height="513" viewBox="0 0 395 513" fill="none" xmlns="http://www.w3.org/2000/svg">
<rect width="395" height="513" fill="#1E1E1E"/>
<g filter="url(#filter0_d_0_1)">
<rect width="395" height="513" rx="10" fill="#B11F1F"/>
<rect x="2.5" y="2.5" width="390" height="508" rx="7.5" stroke="white" stroke-width="5"/>
<path d="M193.792 278.328L190.337 281.88V223.8H205.793V281.88L202.145 278.328H230.561L226.913 281.88V223.8H242.369V291H153.665V223.8H169.121V281.88L165.569 278.328H193.792Z" fill="white"/>
<path fill-rule="evenodd" clip-rule="evenodd" d="M200.809 381.764C199.612 378.079 194.398 378.079 193.201 381.764L187.042 400.72C183.046 402.311 179.53 404.85 176.773 408.06H157.008C153.133 408.06 151.522 413.018 154.657 415.296L170.448 426.769C170.708 431.383 172.154 435.681 174.486 439.362L168.481 457.843C167.284 461.529 171.502 464.593 174.636 462.316L190.389 450.871C192.443 451.383 194.592 451.656 196.805 451.656C199.124 451.656 201.374 451.357 203.517 450.795L219.374 462.316C222.509 464.593 226.726 461.529 225.529 457.843L219.387 438.939C221.514 435.435 222.85 431.397 223.144 427.073L239.354 415.296C242.488 413.018 240.877 408.06 237.002 408.06H216.837C214.186 404.975 210.835 402.509 207.03 400.909L200.809 381.764Z" fill="white"/>
</g>
<defs>
<filter id="filter0_d_0_1" x="-20" y="-20" width="435" height="553" filterUnits="userSpaceOnUse" color-interpolation-filters="sRGB">
<feFlood flood-opacity="0" result="BackgroundImageFix"/>
<feColorMatrix in="SourceAlpha" type="matrix" values="0 0 0 0 0 0 0 0 0 0 0 0 0 0 0 0 0 0 127 0" result="hardAlpha"/>
<feOffset/>
<feGaussianBlur stdDeviation="10"/>
<feComposite in2="hardAlpha" operator="out"/>
<feColorMatrix type="matrix" values="0 0 0 0 1 0 0 0 0 1 0 0 0 0 1 0 0 0 0.25 0"/>
<feBlend mode="normal" in2="BackgroundImageFix" result="effect1_dropShadow_0_1"/>
<feBlend mode="normal" in="SourceGraphic" in2="effect1_dropShadow_0_1" result="shape"/>
</filter>
</defs>
</svg>
