<svg width="50" height="50" viewBox="0 0 50 50" fill="none" xmlns="http://www.w3.org/2000/svg">
    <rect x="1" y="1" width="48" height="48" rx="24" fill="#2C2C2C" fill-opacity="0.75"/>
    <rect x="1" y="1" width="48" height="48" rx="24" stroke="#2C2C2C" stroke-width="2"/>
    <path d="M13.744 21.795C13.7584 21.8 14.7616 22.155 15.2272 23.18C15.5872 23.985 15.5392 25.01 15.0736 26.225C14.4592 27.84 13.8064 29.64 13.144 31.58C12.8752 32.375 12.9856 33.225 13.4512 33.915C13.9216 34.605 14.6512 35 15.4624 35H18.8128C19.84 35 20.7424 34.24 20.9536 33.195L22.0624 27.79L25.0912 27.745C25.7677 27.7386 26.4216 27.4902 26.9433 27.0414C27.465 26.5927 27.8228 25.9708 27.9568 25.28L28.4128 22.995H35.1136C35.3776 22.995 35.5936 22.77 35.5936 22.495V22.255H36.52C36.7888 22.255 37 22.03 37 21.755V21.385H13.4176C13.4416 21.57 13.5664 21.735 13.744 21.795ZM23.6272 23.015C23.5984 23.71 23.7184 24.805 24.6112 25.335C24.688 25.38 24.7648 25.4 24.8464 25.4C25.0144 25.4 25.1776 25.31 25.264 25.145C25.3262 25.0296 25.3419 24.8932 25.3077 24.7657C25.2735 24.6383 25.1922 24.5301 25.0816 24.465C24.6064 24.185 24.5632 23.46 24.5872 23H27.4288L27.016 25.08C26.9257 25.5478 26.6837 25.9691 26.3307 26.2732C25.9776 26.5772 25.5349 26.7456 25.0768 26.75L22.264 26.795L22.9024 23.695C22.984 23.32 23.2816 23.055 23.6272 23.015ZM36.52 15.87H34.3168V15.5C34.3168 15.225 34.1008 15 33.8368 15C33.5728 15 33.3568 15.225 33.3568 15.5V15.87H16.192C15.8272 15.87 15.4816 15.975 15.184 16.16C14.9056 15.86 14.4592 15.605 13.7968 15.655C13.7339 15.6594 13.6725 15.6768 13.6161 15.7062C13.5597 15.7356 13.5095 15.7764 13.4684 15.8262C13.4273 15.876 13.3962 15.9338 13.3767 15.9962C13.3573 16.0587 13.35 16.1246 13.3552 16.19C13.3744 16.465 13.6096 16.67 13.8688 16.65C14.2096 16.62 14.4016 16.74 14.5072 16.855C14.4016 17.035 14.32 17.235 14.272 17.45L13.9216 19.015V19.025L13.6144 20.38H37V16.365C37 16.09 36.7888 15.87 36.52 15.87Z" fill="white"/>
</svg>
