<svg width="50" height="50" viewBox="0 0 50 50" fill="none" xmlns="http://www.w3.org/2000/svg">
    <rect x="1" y="1" width="48" height="48" rx="24" fill="#2C2C2C" fill-opacity="0.75"/>
    <rect x="1" y="1" width="48" height="48" rx="24" stroke="#2C2C2C" stroke-width="2"/>
    <path d="M26.0276 28.5305C25.5492 28.5305 25.1613 28.9184 25.1613 29.3968V32.4558L19.2747 27.796C19.005 27.5831 18.6715 27.4671 18.3278 27.4666H15.5095V22.5286H18.3277C18.8062 22.5286 19.194 22.1407 19.194 21.6623C19.194 21.1838 18.8062 20.7959 18.3277 20.7959H15.3025C14.4603 20.7969 13.7777 21.4794 13.7767 22.3217V27.6736C13.7777 28.5159 14.4603 29.1984 15.3025 29.1994H18.2557L24.7558 34.3447C25.3272 34.7969 26.1571 34.7003 26.6093 34.1288C26.7937 33.8958 26.8941 33.6073 26.894 33.3101V29.3969C26.894 28.9184 26.5062 28.5305 26.0277 28.5305L26.0276 28.5305ZM37.2415 36.0163L33.5409 32.3158C37.3367 27.8474 37.0673 21.2138 32.9216 17.0679C32.5818 16.7311 32.0332 16.7336 31.6964 17.0734C31.3617 17.4111 31.3617 17.9554 31.6965 18.2931C35.1861 21.7827 35.3932 27.349 32.3104 31.085L30.2766 29.0512C32.2852 26.3972 32.0286 22.6682 29.6752 20.3144C29.3354 19.9776 28.7868 19.98 28.45 20.3199C28.1153 20.6576 28.1153 21.2019 28.45 21.5396C30.1474 23.237 30.3433 25.8898 29.0342 27.8087L26.8942 25.6687V16.6851C26.8943 15.9565 26.3036 15.3657 25.575 15.3656C25.2776 15.3655 24.989 15.4659 24.7559 15.6504L20.3574 19.1322L13.9789 12.7538C13.6406 12.4155 13.0921 12.4155 12.7537 12.7538C12.4154 13.0921 12.4154 13.6407 12.7537 13.979L25.4148 26.6401L25.4151 26.6404L36.0163 37.2415C36.352 37.5825 36.9005 37.5868 37.2415 37.2511C37.5824 36.9154 37.5867 36.3669 37.251 36.0259L37.2415 36.0163ZM25.1613 17.5395V23.9361L21.5909 20.3657L25.1613 17.5395Z" fill="white"/>
</svg>