<svg width="50" height="50" viewBox="0 0 50 50" fill="none" xmlns="http://www.w3.org/2000/svg">
<rect x="1" y="1" width="48" height="48" rx="24" fill="#2C2C2C" fill-opacity="0.75"/>
<rect x="1" y="1" width="48" height="48" rx="24" stroke="#2C2C2C" stroke-width="2"/>
<path d="M21.4696 13.1266C21.551 13.1266 21.5512 13 21.4696 13C21.3881 13 21.3879 13.1266 21.4696 13.1266ZM27.8991 34.1512C26.0838 37.0228 21.5795 35.7598 21.5619 32.3173V32.0348C21.5351 32.0355 21.5084 32.0368 21.4815 32.0368H20.3765C20.3494 32.0368 20.3226 32.0355 20.2957 32.0347V32.3173C20.3753 37.4199 27.215 38.7953 29.2968 34.2166H28.5123C28.3019 34.2166 28.0969 34.1937 27.8991 34.1512ZM24.7025 28.2879C24.6086 28.2879 24.5151 28.2838 24.4217 28.2765C24.4138 28.2813 24.4059 28.2861 24.3979 28.2909V29.0271C25.0554 29.2919 25.8222 29.2605 26.4773 28.8824C27.2622 28.4294 27.6844 27.6041 27.6651 26.7673C26.9859 27.713 25.8808 28.2878 24.7025 28.2879ZM35.8018 24.6437C35.8018 24.0316 35.5654 23.4493 35.1532 23.0122C35.2916 22.4274 35.2052 21.8051 34.8992 21.2753C34.5958 20.75 34.1029 20.3605 33.5217 20.1867C33.3492 19.6109 32.9633 19.1151 32.4332 18.809C31.9077 18.506 31.2862 18.4152 30.696 18.5553C29.9348 17.8085 28.639 17.6941 27.759 18.2986C27.7941 18.3524 27.8278 18.4071 27.8601 18.4626C28.2163 19.0795 28.3811 19.777 28.3431 20.4771C28.7606 21.1156 28.9696 21.8842 28.9265 22.6568C29.1572 22.67 29.3906 22.6502 29.6131 22.5974C29.7473 22.7238 29.8958 22.8341 30.0556 22.9261C30.2154 23.0189 30.3856 23.0926 30.5626 23.1457C30.6158 23.3225 30.6894 23.4925 30.7819 23.6523C30.874 23.8122 30.9845 23.961 31.111 24.0954C31.0265 24.4502 31.0265 24.8372 31.111 25.192C30.9845 25.3265 30.874 25.4753 30.7818 25.6353C30.1193 26.7829 30.5257 28.2324 31.652 28.8824C32.7965 29.543 34.247 29.1422 34.899 28.0122C35.205 27.4822 35.2915 26.8599 35.1531 26.2752C35.5695 25.834 35.8016 25.2504 35.8018 24.6437ZM19.2117 23.4553C19.1196 23.2953 19.0092 23.1466 18.8826 23.0122C18.9672 22.6573 18.9672 22.2704 18.8826 21.9155C19.0092 21.7811 19.1197 21.6323 19.2119 21.4722C19.3043 21.3125 19.3778 21.1426 19.431 20.9659C19.6078 20.9128 19.7778 20.8392 19.9375 20.7466C20.0975 20.6546 20.2462 20.5442 20.3805 20.4177C20.7369 20.5021 21.1211 20.5021 21.4774 20.4177C21.6116 20.544 21.7601 20.6543 21.9199 20.7463C22.0797 20.8391 22.2499 20.9128 22.4269 20.9659C22.4801 21.1427 22.5537 21.3127 22.6462 21.4725C22.7383 21.6325 22.8488 21.7812 22.9753 21.9156C22.8908 22.2705 22.8908 22.6574 22.9753 23.0123C22.8488 23.1467 22.7383 23.2955 22.6461 23.4555C21.9836 24.6032 22.39 26.0526 23.5163 26.7026C24.6608 27.3633 26.1113 26.9624 26.7633 25.8324C27.0693 25.3025 27.1558 24.6802 27.0174 24.0954C27.8739 23.229 27.8739 21.6989 27.0174 20.8324C27.1558 20.2477 27.0694 19.6254 26.7634 19.0956C26.46 18.5702 25.9672 18.1808 25.3859 18.007C25.2135 17.4312 24.8275 16.9354 24.2974 16.6293C23.7719 16.3262 23.1505 16.2355 22.5602 16.3756C21.6941 15.5193 20.1638 15.5192 19.2977 16.3756C18.7074 16.2355 18.0858 16.3263 17.5603 16.6294C17.0303 16.9354 16.6444 17.4312 16.472 18.007C15.8908 18.1808 15.398 18.5702 15.0946 19.0955C14.7915 19.6209 14.7006 20.2422 14.8405 20.8324C13.984 21.6989 13.984 23.229 14.8405 24.0954C14.7021 24.6802 14.7885 25.3025 15.0945 25.8323C15.7564 26.9794 17.2146 27.3531 18.3415 26.7026C19.4893 26.0402 19.8621 24.5818 19.2117 23.4553ZM29.7984 28.8293C29.3128 28.915 28.8159 28.915 28.3303 28.8292C28.0186 29.3022 27.6008 29.696 27.1102 29.9791C27.0291 30.0257 26.9463 30.0691 26.862 30.1093V31.3001C26.862 32.2101 27.6023 32.9504 28.5123 32.9504H29.6173C30.5273 32.9504 31.2676 32.2101 31.2676 31.3001V30.1094C31.1831 30.0691 31.1002 30.0255 31.0191 29.9789C30.5205 29.6912 30.1064 29.2975 29.7984 28.8293Z" fill="white"/>
<path d="M21.4815 30.7706C22.3915 30.7706 23.1318 30.0303 23.1318 29.1203V27.9296C23.0473 27.8893 22.9644 27.8457 22.8833 27.7991C22.3847 27.5113 21.9706 27.1176 21.6626 26.6495C21.177 26.7352 20.6801 26.7352 20.1945 26.6493C19.8828 27.1224 19.4651 27.5161 18.9744 27.7992C18.8934 27.8458 18.8106 27.8893 18.7262 27.9295V29.1202C18.7262 30.0302 19.4665 30.7705 20.3765 30.7705L21.4815 30.7706Z" fill="white"/>
</svg>
