<svg width="395" height="513" viewBox="0 0 395 513" fill="none" xmlns="http://www.w3.org/2000/svg">
<rect width="395" height="513" fill="#1E1E1E"/>
<g clip-path="url(#clip0_0_1)">
<rect width="1920" height="1080" transform="translate(-762 -264)" fill="#2C2C2C"/>
<g clip-path="url(#clip1_0_1)">
<rect x="-242.341" y="193.692" width="621.023" height="53.4862" transform="rotate(-37.5 -242.341 193.692)" fill="#B11F1F"/>
<rect x="-49.1493" y="445.464" width="621.023" height="53.4862" transform="rotate(-37.5 -49.1493 445.464)" fill="#B11F1F"/>
<rect x="-179.391" y="275.73" width="621.023" height="53.4862" transform="rotate(-37.5 -179.391 275.73)" fill="#B11F1F"/>
<rect x="13.8007" y="527.502" width="621.023" height="53.4862" transform="rotate(-37.5 13.8007 527.502)" fill="#B11F1F"/>
<rect x="-114.27" y="360.597" width="621.023" height="53.4862" transform="rotate(-37.5 -114.27 360.597)" fill="#B11F1F"/>
<rect x="78.9214" y="612.369" width="621.023" height="53.4862" transform="rotate(-37.5 78.9214 612.369)" fill="#B11F1F"/>
<rect x="-209.78" y="236.125" width="621.023" height="53.4862" transform="rotate(-37.5 -209.78 236.125)" fill="#900C0C"/>
<rect x="-16.5889" y="487.897" width="621.023" height="53.4862" transform="rotate(-37.5 -16.5889 487.897)" fill="#900C0C"/>
<rect x="-146.83" y="318.163" width="621.023" height="53.4862" transform="rotate(-37.5 -146.83 318.163)" fill="#900C0C"/>
<rect x="46.3611" y="569.935" width="621.023" height="53.4862" transform="rotate(-37.5 46.3611 569.935)" fill="#900C0C"/>
<rect x="-81.7096" y="403.03" width="621.023" height="53.4862" transform="rotate(-37.5 -81.7096 403.03)" fill="#900C0C"/>
<rect x="111.482" y="654.802" width="621.023" height="53.4862" transform="rotate(-37.5 111.482 654.802)" fill="#900C0C"/>
<path d="M99.4885 260V226.4H105.921L120.225 250.112H116.817L130.881 226.4H137.313L137.361 260H130.065L130.017 237.584H131.409L120.129 256.448H116.673L105.153 237.584H106.785V260H99.4885ZM141.915 260L156.891 226.4H164.571L179.595 260H171.435L159.147 230.336H162.219L149.883 260H141.915ZM149.403 252.8L151.467 246.896H168.747L170.859 252.8H149.403ZM201.342 257.888C196.99 257.888 193.294 257.312 190.254 256.16C187.246 255.008 184.958 253.344 183.39 251.168C181.822 248.96 181.038 246.272 181.038 243.104C181.038 239.936 181.822 237.264 183.39 235.088C184.958 232.88 187.246 231.2 190.254 230.048C193.294 228.896 196.99 228.32 201.342 228.32C201.406 228.32 201.582 228.32 201.87 228.32C202.19 228.32 202.494 228.32 202.782 228.32C203.102 228.32 203.278 228.32 203.31 228.32C207.63 228.32 211.278 228.896 214.254 230.048C217.262 231.2 219.534 232.88 221.07 235.088C222.606 237.296 223.374 239.968 223.374 243.104C223.374 246.208 222.606 248.88 221.07 251.12C219.566 253.328 217.342 255.008 214.398 256.16C211.486 257.312 207.918 257.888 203.694 257.888C203.598 257.888 203.374 257.888 203.022 257.888C202.67 257.888 202.318 257.888 201.966 257.888C201.646 257.888 201.438 257.888 201.342 257.888ZM202.062 251.888C202.158 251.888 202.286 251.888 202.446 251.888C202.606 251.888 202.718 251.888 202.782 251.888C205.726 251.888 208.158 251.568 210.078 250.928C212.03 250.256 213.486 249.28 214.446 248C215.406 246.688 215.886 245.04 215.886 243.056C215.886 241.072 215.39 239.44 214.398 238.16C213.406 236.88 211.95 235.936 210.03 235.328C208.142 234.688 205.758 234.368 202.878 234.368C202.814 234.368 202.686 234.368 202.494 234.368C202.334 234.368 202.19 234.368 202.062 234.368C199.022 234.368 196.51 234.672 194.526 235.28C192.542 235.888 191.054 236.848 190.062 238.16C189.07 239.44 188.574 241.088 188.574 243.104C188.574 245.12 189.102 246.784 190.158 248.096C191.214 249.376 192.734 250.336 194.718 250.976C196.734 251.584 199.182 251.888 202.062 251.888ZM198.654 261.488V224.96H205.806V261.488H198.654ZM229.192 260V226.4H236.92V248.288L252.952 226.4H260.248V260H252.568V238.16L236.536 260H229.192ZM287.766 260V249.392L289.686 251.072H280.47C277.558 251.072 275.046 250.592 272.934 249.632C270.822 248.672 269.206 247.28 268.086 245.456C266.966 243.632 266.406 241.456 266.406 238.928C266.406 236.304 266.998 234.064 268.182 232.208C269.398 230.32 271.094 228.88 273.27 227.888C275.446 226.896 278.006 226.4 280.95 226.4H295.446V260H287.766ZM266.502 260L274.854 247.952H282.726L274.71 260H266.502ZM287.766 246.896V230.72L289.686 232.736H281.142C278.934 232.736 277.238 233.248 276.054 234.272C274.902 235.296 274.326 236.816 274.326 238.832C274.326 240.784 274.886 242.288 276.006 243.344C277.126 244.4 278.774 244.928 280.95 244.928H289.686L287.766 246.896Z" fill="white"/>
<path d="M132.99 296.08C132.254 296.08 131.593 295.915 131.006 295.584C130.42 295.243 129.956 294.752 129.614 294.112C129.273 293.472 129.102 292.699 129.102 291.792C129.102 290.875 129.273 290.101 129.614 289.472C129.966 288.832 130.436 288.347 131.022 288.016C131.609 287.685 132.265 287.52 132.99 287.52C133.79 287.52 134.505 287.701 135.134 288.064C135.774 288.416 136.276 288.912 136.638 289.552C137.001 290.192 137.182 290.939 137.182 291.792C137.182 292.635 137.001 293.381 136.638 294.032C136.276 294.672 135.774 295.173 135.134 295.536C134.505 295.899 133.79 296.08 132.99 296.08ZM128.654 296V284.128H129.79V290.08L129.63 291.776L129.742 293.472V296H128.654ZM132.91 295.072C133.508 295.072 134.041 294.939 134.51 294.672C134.98 294.395 135.353 294.011 135.63 293.52C135.908 293.019 136.046 292.443 136.046 291.792C136.046 291.131 135.908 290.555 135.63 290.064C135.353 289.573 134.98 289.195 134.51 288.928C134.041 288.651 133.508 288.512 132.91 288.512C132.313 288.512 131.774 288.651 131.294 288.928C130.825 289.195 130.452 289.573 130.174 290.064C129.908 290.555 129.774 291.131 129.774 291.792C129.774 292.443 129.908 293.019 130.174 293.52C130.452 294.011 130.825 294.395 131.294 294.672C131.774 294.939 132.313 295.072 132.91 295.072ZM139.328 299.184C138.933 299.184 138.554 299.12 138.192 298.992C137.84 298.864 137.536 298.672 137.28 298.416L137.808 297.568C138.021 297.771 138.25 297.925 138.496 298.032C138.752 298.149 139.034 298.208 139.344 298.208C139.717 298.208 140.037 298.101 140.304 297.888C140.581 297.685 140.842 297.323 141.088 296.8L141.632 295.568L141.76 295.392L145.216 287.6H146.336L142.128 297.008C141.893 297.552 141.632 297.984 141.344 298.304C141.066 298.624 140.762 298.848 140.432 298.976C140.101 299.115 139.733 299.184 139.328 299.184ZM141.568 296.24L137.696 287.6H138.88L142.304 295.312L141.568 296.24ZM158.779 299.2C157.68 299.2 156.678 299.019 155.771 298.656C154.864 298.304 154.08 297.803 153.419 297.152C152.768 296.512 152.262 295.749 151.899 294.864C151.547 293.968 151.371 292.992 151.371 291.936C151.371 290.869 151.547 289.899 151.899 289.024C152.262 288.139 152.774 287.376 153.435 286.736C154.107 286.085 154.902 285.584 155.819 285.232C156.736 284.88 157.744 284.704 158.843 284.704C159.931 284.704 160.923 284.875 161.819 285.216C162.726 285.557 163.51 286.043 164.171 286.672C164.832 287.291 165.339 288.032 165.691 288.896C166.054 289.76 166.235 290.715 166.235 291.76C166.235 292.656 166.128 293.429 165.915 294.08C165.712 294.72 165.414 295.216 165.019 295.568C164.624 295.909 164.15 296.08 163.595 296.08C163.051 296.08 162.614 295.915 162.283 295.584C161.952 295.253 161.787 294.789 161.787 294.192V292.928L161.915 291.904L161.755 290.304V287.888H162.795V293.952C162.795 294.4 162.891 294.715 163.083 294.896C163.275 295.077 163.51 295.168 163.787 295.168C164.118 295.168 164.406 295.035 164.651 294.768C164.896 294.501 165.083 294.117 165.211 293.616C165.35 293.104 165.419 292.491 165.419 291.776C165.419 290.837 165.259 289.984 164.939 289.216C164.619 288.448 164.166 287.787 163.579 287.232C162.992 286.677 162.299 286.256 161.499 285.968C160.699 285.669 159.814 285.52 158.843 285.52C157.872 285.52 156.982 285.675 156.171 285.984C155.36 286.293 154.662 286.736 154.075 287.312C153.499 287.877 153.051 288.555 152.731 289.344C152.411 290.123 152.251 290.987 152.251 291.936C152.251 292.885 152.406 293.755 152.715 294.544C153.035 295.333 153.483 296.011 154.059 296.576C154.635 297.152 155.323 297.595 156.123 297.904C156.923 298.224 157.808 298.384 158.779 298.384C159.259 298.384 159.771 298.325 160.315 298.208C160.87 298.091 161.382 297.915 161.851 297.68L162.123 298.464C161.643 298.709 161.099 298.891 160.491 299.008C159.883 299.136 159.312 299.2 158.779 299.2ZM158.587 296.08C157.83 296.08 157.152 295.904 156.555 295.552C155.958 295.189 155.483 294.699 155.131 294.08C154.79 293.451 154.619 292.736 154.619 291.936C154.619 291.136 154.79 290.427 155.131 289.808C155.483 289.189 155.958 288.704 156.555 288.352C157.152 288 157.83 287.824 158.587 287.824C159.323 287.824 159.974 287.989 160.539 288.32C161.115 288.651 161.563 289.125 161.883 289.744C162.214 290.352 162.379 291.083 162.379 291.936C162.379 292.789 162.214 293.525 161.883 294.144C161.563 294.763 161.12 295.243 160.555 295.584C159.99 295.915 159.334 296.08 158.587 296.08ZM158.731 295.152C159.307 295.152 159.824 295.019 160.283 294.752C160.752 294.485 161.115 294.112 161.371 293.632C161.638 293.141 161.771 292.576 161.771 291.936C161.771 291.285 161.638 290.725 161.371 290.256C161.115 289.776 160.752 289.408 160.283 289.152C159.824 288.885 159.307 288.752 158.731 288.752C158.134 288.752 157.606 288.885 157.147 289.152C156.688 289.408 156.326 289.776 156.059 290.256C155.803 290.736 155.675 291.296 155.675 291.936C155.675 292.576 155.803 293.136 156.059 293.616C156.326 294.096 156.688 294.475 157.147 294.752C157.606 295.019 158.134 295.152 158.731 295.152ZM168.654 296V284.128H169.79V296H168.654ZM178.215 296V294.144L178.167 293.84V290.736C178.167 290.021 177.965 289.472 177.559 289.088C177.165 288.704 176.573 288.512 175.783 288.512C175.239 288.512 174.722 288.603 174.231 288.784C173.741 288.965 173.325 289.205 172.983 289.504L172.471 288.656C172.898 288.293 173.41 288.016 174.007 287.824C174.605 287.621 175.234 287.52 175.895 287.52C176.983 287.52 177.821 287.792 178.407 288.336C179.005 288.869 179.303 289.685 179.303 290.784V296H178.215ZM175.319 296.08C174.69 296.08 174.141 295.979 173.671 295.776C173.213 295.563 172.861 295.275 172.615 294.912C172.37 294.539 172.247 294.112 172.247 293.632C172.247 293.195 172.349 292.8 172.551 292.448C172.765 292.085 173.106 291.797 173.575 291.584C174.055 291.36 174.695 291.248 175.495 291.248H178.391V292.096H175.527C174.717 292.096 174.151 292.24 173.831 292.528C173.522 292.816 173.367 293.173 173.367 293.6C173.367 294.08 173.554 294.464 173.927 294.752C174.301 295.04 174.823 295.184 175.495 295.184C176.135 295.184 176.685 295.04 177.143 294.752C177.613 294.453 177.954 294.027 178.167 293.472L178.423 294.256C178.21 294.811 177.837 295.253 177.303 295.584C176.781 295.915 176.119 296.08 175.319 296.08ZM184.645 296.08C183.951 296.08 183.295 295.984 182.677 295.792C182.058 295.589 181.573 295.339 181.221 295.04L181.733 294.144C182.074 294.4 182.511 294.624 183.045 294.816C183.578 294.997 184.138 295.088 184.725 295.088C185.525 295.088 186.101 294.965 186.453 294.72C186.805 294.464 186.981 294.128 186.981 293.712C186.981 293.403 186.879 293.163 186.677 292.992C186.485 292.811 186.229 292.677 185.909 292.592C185.589 292.496 185.231 292.416 184.837 292.352C184.442 292.288 184.047 292.213 183.653 292.128C183.269 292.043 182.917 291.92 182.597 291.76C182.277 291.589 182.015 291.36 181.813 291.072C181.621 290.784 181.525 290.4 181.525 289.92C181.525 289.461 181.653 289.051 181.909 288.688C182.165 288.325 182.538 288.043 183.029 287.84C183.53 287.627 184.138 287.52 184.853 287.52C185.397 287.52 185.941 287.595 186.485 287.744C187.029 287.883 187.477 288.069 187.829 288.304L187.333 289.216C186.959 288.96 186.559 288.779 186.133 288.672C185.706 288.555 185.279 288.496 184.853 288.496C184.095 288.496 183.535 288.629 183.173 288.896C182.821 289.152 182.645 289.483 182.645 289.888C182.645 290.208 182.741 290.459 182.933 290.64C183.135 290.821 183.397 290.965 183.717 291.072C184.047 291.168 184.405 291.248 184.789 291.312C185.183 291.376 185.573 291.456 185.957 291.552C186.351 291.637 186.709 291.76 187.029 291.92C187.359 292.069 187.621 292.288 187.813 292.576C188.015 292.853 188.117 293.221 188.117 293.68C188.117 294.171 187.978 294.597 187.701 294.96C187.434 295.312 187.039 295.589 186.517 295.792C186.005 295.984 185.381 296.08 184.645 296.08ZM194.489 287.52C195.172 287.52 195.769 287.653 196.281 287.92C196.804 288.176 197.209 288.571 197.497 289.104C197.796 289.637 197.945 290.309 197.945 291.12V296H196.809V291.232C196.809 290.347 196.585 289.68 196.137 289.232C195.7 288.773 195.081 288.544 194.281 288.544C193.684 288.544 193.161 288.667 192.713 288.912C192.276 289.147 191.935 289.493 191.689 289.952C191.455 290.4 191.337 290.944 191.337 291.584V296H190.201V284.128H191.337V289.904L191.113 289.472C191.38 288.864 191.807 288.389 192.393 288.048C192.98 287.696 193.679 287.52 194.489 287.52ZM204.502 296.08C203.67 296.08 202.923 295.899 202.262 295.536C201.611 295.163 201.099 294.656 200.726 294.016C200.352 293.365 200.166 292.624 200.166 291.792C200.166 290.949 200.352 290.208 200.726 289.568C201.099 288.928 201.611 288.427 202.262 288.064C202.923 287.701 203.67 287.52 204.502 287.52C205.216 287.52 205.862 287.659 206.438 287.936C207.014 288.213 207.467 288.629 207.798 289.184L206.95 289.76C206.662 289.333 206.304 289.019 205.878 288.816C205.451 288.613 204.987 288.512 204.486 288.512C203.888 288.512 203.35 288.651 202.87 288.928C202.39 289.195 202.011 289.573 201.734 290.064C201.456 290.555 201.318 291.131 201.318 291.792C201.318 292.453 201.456 293.029 201.734 293.52C202.011 294.011 202.39 294.395 202.87 294.672C203.35 294.939 203.888 295.072 204.486 295.072C204.987 295.072 205.451 294.971 205.878 294.768C206.304 294.565 206.662 294.256 206.95 293.84L207.798 294.416C207.467 294.96 207.014 295.376 206.438 295.664C205.862 295.941 205.216 296.08 204.502 296.08ZM214.192 287.52C214.875 287.52 215.472 287.653 215.984 287.92C216.507 288.176 216.912 288.571 217.2 289.104C217.499 289.637 217.648 290.309 217.648 291.12V296H216.512V291.232C216.512 290.347 216.288 289.68 215.84 289.232C215.403 288.773 214.784 288.544 213.984 288.544C213.387 288.544 212.864 288.667 212.416 288.912C211.979 289.147 211.638 289.493 211.392 289.952C211.158 290.4 211.04 290.944 211.04 291.584V296H209.904V284.128H211.04V289.904L210.816 289.472C211.083 288.864 211.51 288.389 212.096 288.048C212.683 287.696 213.382 287.52 214.192 287.52ZM224.285 296.08C223.41 296.08 222.642 295.899 221.981 295.536C221.319 295.163 220.802 294.656 220.429 294.016C220.055 293.365 219.869 292.624 219.869 291.792C219.869 290.96 220.045 290.224 220.397 289.584C220.759 288.944 221.25 288.443 221.869 288.08C222.498 287.707 223.202 287.52 223.981 287.52C224.77 287.52 225.469 287.701 226.077 288.064C226.695 288.416 227.181 288.917 227.533 289.568C227.885 290.208 228.061 290.949 228.061 291.792C228.061 291.845 228.055 291.904 228.045 291.968C228.045 292.021 228.045 292.08 228.045 292.144H220.733V291.296H227.437L226.989 291.632C226.989 291.024 226.855 290.485 226.589 290.016C226.333 289.536 225.981 289.163 225.533 288.896C225.085 288.629 224.567 288.496 223.981 288.496C223.405 288.496 222.887 288.629 222.429 288.896C221.97 289.163 221.613 289.536 221.357 290.016C221.101 290.496 220.973 291.045 220.973 291.664V291.84C220.973 292.48 221.111 293.045 221.389 293.536C221.677 294.016 222.071 294.395 222.573 294.672C223.085 294.939 223.666 295.072 224.317 295.072C224.829 295.072 225.303 294.981 225.741 294.8C226.189 294.619 226.573 294.341 226.893 293.968L227.533 294.704C227.159 295.152 226.69 295.493 226.125 295.728C225.57 295.963 224.957 296.08 224.285 296.08ZM232.377 296L228.649 287.6H229.833L233.257 295.392H232.697L236.169 287.6H237.289L233.545 296H232.377ZM238.454 296.08C238.219 296.08 238.016 295.995 237.846 295.824C237.686 295.653 237.606 295.445 237.606 295.2C237.606 294.944 237.686 294.736 237.846 294.576C238.016 294.416 238.219 294.336 238.454 294.336C238.688 294.336 238.886 294.416 239.046 294.576C239.216 294.736 239.302 294.944 239.302 295.2C239.302 295.445 239.216 295.653 239.046 295.824C238.886 295.995 238.688 296.08 238.454 296.08ZM244.842 296.08C244.042 296.08 243.322 295.899 242.682 295.536C242.053 295.173 241.557 294.672 241.194 294.032C240.831 293.381 240.65 292.635 240.65 291.792C240.65 290.939 240.831 290.192 241.194 289.552C241.557 288.912 242.053 288.416 242.682 288.064C243.322 287.701 244.042 287.52 244.842 287.52C245.578 287.52 246.234 287.685 246.81 288.016C247.397 288.347 247.861 288.832 248.202 289.472C248.554 290.101 248.73 290.875 248.73 291.792C248.73 292.699 248.559 293.472 248.218 294.112C247.877 294.752 247.413 295.243 246.826 295.584C246.25 295.915 245.589 296.08 244.842 296.08ZM244.922 295.072C245.519 295.072 246.053 294.939 246.522 294.672C247.002 294.395 247.375 294.011 247.642 293.52C247.919 293.019 248.058 292.443 248.058 291.792C248.058 291.131 247.919 290.555 247.642 290.064C247.375 289.573 247.002 289.195 246.522 288.928C246.053 288.651 245.519 288.512 244.922 288.512C244.335 288.512 243.807 288.651 243.338 288.928C242.869 289.195 242.495 289.573 242.218 290.064C241.941 290.555 241.802 291.131 241.802 291.792C241.802 292.443 241.941 293.019 242.218 293.52C242.495 294.011 242.869 294.395 243.338 294.672C243.807 294.939 244.335 295.072 244.922 295.072ZM248.09 296V293.472L248.202 291.776L248.042 290.08V284.128H249.178V296H248.09ZM255.91 296.08C255.035 296.08 254.267 295.899 253.606 295.536C252.944 295.163 252.427 294.656 252.054 294.016C251.68 293.365 251.494 292.624 251.494 291.792C251.494 290.96 251.67 290.224 252.022 289.584C252.384 288.944 252.875 288.443 253.494 288.08C254.123 287.707 254.827 287.52 255.606 287.52C256.395 287.52 257.094 287.701 257.702 288.064C258.32 288.416 258.806 288.917 259.158 289.568C259.51 290.208 259.686 290.949 259.686 291.792C259.686 291.845 259.68 291.904 259.67 291.968C259.67 292.021 259.67 292.08 259.67 292.144H252.358V291.296H259.062L258.614 291.632C258.614 291.024 258.48 290.485 258.214 290.016C257.958 289.536 257.606 289.163 257.158 288.896C256.71 288.629 256.192 288.496 255.606 288.496C255.03 288.496 254.512 288.629 254.054 288.896C253.595 289.163 253.238 289.536 252.982 290.016C252.726 290.496 252.598 291.045 252.598 291.664V291.84C252.598 292.48 252.736 293.045 253.014 293.536C253.302 294.016 253.696 294.395 254.198 294.672C254.71 294.939 255.291 295.072 255.942 295.072C256.454 295.072 256.928 294.981 257.366 294.8C257.814 294.619 258.198 294.341 258.518 293.968L259.158 294.704C258.784 295.152 258.315 295.493 257.75 295.728C257.195 295.963 256.582 296.08 255.91 296.08ZM264.002 296L260.274 287.6H261.458L264.882 295.392H264.322L267.794 287.6H268.914L265.17 296H264.002Z" fill="white"/>
</g>
<rect x="2.5" y="2.5" width="390" height="508" rx="7.5" stroke="white" stroke-width="5"/>
</g>
<defs>
<clipPath id="clip0_0_1">
<rect width="1920" height="1080" fill="white" transform="translate(-762 -264)"/>
</clipPath>
<clipPath id="clip1_0_1">
<rect width="395" height="513" rx="10" fill="white"/>
</clipPath>
</defs>
</svg>
